<svg width="162" height="30" viewBox="0 0 162 30" fill="none" xmlns="http://www.w3.org/2000/svg">
<g id="Group 11">
<path id="Vector" d="M94.3375 0H67.6625C67.2226 0.00327085 66.8016 0.179477 66.4905 0.49055C66.1795 0.801623 66.0033 1.22259 66 1.6625V28.3375C66.0033 28.7774 66.1795 29.1984 66.4905 29.5094C66.8016 29.8205 67.2226 29.9967 67.6625 30H82.025V18.4H78.125V13.8625H82.025V10.525C82.025 6.65 84.3875 4.5375 87.8625 4.5375C89.025 4.5375 90.1875 4.5375 91.35 4.7125V8.75H88.9625C87.075 8.75 86.7125 9.65 86.7125 10.9625V13.85H91.2125L90.625 18.3875H86.7125V30H94.3375C94.7774 29.9967 95.1984 29.8205 95.5094 29.5094C95.8205 29.1984 95.9967 28.7774 96 28.3375V1.6625C95.9967 1.22259 95.8205 0.801623 95.5094 0.49055C95.1984 0.179477 94.7774 0.00327085 94.3375 0Z" fill="#F8F8F8"/>
<path id="Vector_2" d="M27 0H3C1.35 0 0 1.6875 0 3.75V26.25C0 28.3125 1.35 30 3 30H27C28.65 30 30 28.3125 30 26.25V3.75C30 1.6875 28.65 0 27 0ZM26.4 7.96875L16.59 15.6375C15.615 16.4062 14.385 16.4062 13.41 15.6375L3.6 7.96875C3.44959 7.86321 3.31788 7.72061 3.21283 7.5496C3.10779 7.37859 3.03159 7.18271 2.98886 6.97382C2.94613 6.76493 2.93775 6.54738 2.96423 6.33433C2.99072 6.12127 3.0515 5.91715 3.14292 5.73431C3.23434 5.55148 3.35449 5.39373 3.49609 5.27062C3.63769 5.1475 3.79781 5.06158 3.96674 5.01806C4.13568 4.97454 4.30992 4.97431 4.47893 5.0174C4.64794 5.06049 4.8082 5.146 4.95 5.26875L15 13.125L25.05 5.26875C25.1918 5.146 25.3521 5.06049 25.5211 5.0174C25.6901 4.97431 25.8643 4.97454 26.0333 5.01806C26.2022 5.06158 26.3623 5.1475 26.5039 5.27062C26.6455 5.39373 26.7657 5.55148 26.8571 5.73431C26.9485 5.91715 27.0093 6.12127 27.0358 6.33433C27.0622 6.54738 27.0539 6.76493 27.0111 6.97382C26.9684 7.18271 26.8922 7.37859 26.7872 7.5496C26.6821 7.72061 26.5504 7.86321 26.4 7.96875Z" fill="#F8F8F8"/>
<path id="Vector_3" d="M151.8 15C151.8 15.9494 151.518 16.8774 150.991 17.6667C150.464 18.4561 149.714 19.0713 148.837 19.4346C147.96 19.7979 146.995 19.893 146.064 19.7078C145.132 19.5226 144.277 19.0654 143.606 18.3941C142.935 17.7228 142.477 16.8675 142.292 15.9364C142.107 15.0053 142.202 14.0402 142.565 13.1631C142.929 12.286 143.544 11.5364 144.333 11.0089C145.123 10.4815 146.051 10.2 147 10.2C148.272 10.204 149.49 10.7109 150.39 11.6103C151.289 12.5096 151.796 13.7282 151.8 15ZM162 8.4V21.6C162 23.8278 161.115 25.9644 159.54 27.5397C157.964 29.115 155.828 30 153.6 30H140.4C138.172 30 136.036 29.115 134.46 27.5397C132.885 25.9644 132 23.8278 132 21.6V8.4C132 6.17218 132.885 4.03561 134.46 2.4603C136.036 0.884997 138.172 0 140.4 0H153.6C155.828 0 157.964 0.884997 159.54 2.4603C161.115 4.03561 162 6.17218 162 8.4ZM154.2 15C154.2 13.576 153.778 12.1839 152.987 10.9999C152.195 9.81586 151.071 8.89302 149.755 8.34807C148.44 7.80312 146.992 7.66053 145.595 7.93835C144.199 8.21616 142.916 8.90189 141.909 9.90883C140.902 10.9158 140.216 12.1987 139.938 13.5954C139.661 14.992 139.803 16.4397 140.348 17.7553C140.893 19.0709 141.816 20.1954 143 20.9866C144.184 21.7777 145.576 22.2 147 22.2C148.91 22.2 150.741 21.4414 152.091 20.0912C153.441 18.7409 154.2 16.9096 154.2 15ZM156.6 7.2C156.6 6.84399 156.494 6.49598 156.297 6.19997C156.099 5.90397 155.818 5.67325 155.489 5.53702C155.16 5.40078 154.798 5.36513 154.449 5.43459C154.1 5.50404 153.779 5.67547 153.527 5.92721C153.275 6.17894 153.104 6.49967 153.035 6.84884C152.965 7.198 153.001 7.55992 153.137 7.88883C153.273 8.21774 153.504 8.49886 153.8 8.69665C154.096 8.89443 154.444 9 154.8 9C155.277 9 155.735 8.81036 156.073 8.47279C156.41 8.13523 156.6 7.67739 156.6 7.2Z" fill="#F8F8F8"/>
</g>
</svg>
